<?xml version="1.0" encoding="UTF-8" standalone="no"?><svg xmlns="http://www.w3.org/2000/svg" xmlns:xlink="http://www.w3.org/1999/xlink" contentScriptType="application/ecmascript" contentStyleType="text/css" height="268px" preserveAspectRatio="none" style="width:458px;height:268px;" version="1.1" viewBox="0 0 458 268" width="458px" zoomAndPan="magnify"><defs><filter height="300%" id="f5lucbj" width="300%" x="-1" y="-1"><feGaussianBlur result="blurOut" stdDeviation="2.0"/><feColorMatrix in="blurOut" result="blurOut2" type="matrix" values="0 0 0 0 0 0 0 0 0 0 0 0 0 0 0 0 0 0 .4 0"/><feOffset dx="4.0" dy="4.0" in="blurOut2" result="blurOut3"/><feBlend in="SourceGraphic" in2="blurOut3" mode="normal"/></filter></defs><g><!--class Box--><rect fill="#FFFFFF" filter="url(#f5lucbj)" height="23.9688" style="stroke: #383838; stroke-width: 1.5;" width="29" x="418" y="122"/><text fill="#000000" font-family="sans-serif" font-size="12" lengthAdjust="spacingAndGlyphs" textLength="23" x="421" y="138.1387">Box</text><!--class Rechnung--><rect fill="#FFFFFF" filter="url(#f5lucbj)" height="23.9688" style="stroke: #383838; stroke-width: 1.5;" width="66" x="114.5" y="236"/><text fill="#000000" font-family="sans-serif" font-size="12" lengthAdjust="spacingAndGlyphs" textLength="60" x="117.5" y="252.1387">Rechnung</text><!--class Foto--><rect fill="#FFFFFF" filter="url(#f5lucbj)" height="23.9688" style="stroke: #383838; stroke-width: 1.5;" width="34" x="415.5" y="8"/><text fill="#000000" font-family="sans-serif" font-size="12" lengthAdjust="spacingAndGlyphs" textLength="28" x="418.5" y="24.1387">Foto</text><!--class Kunde--><rect fill="#FFFFFF" filter="url(#f5lucbj)" height="23.9688" style="stroke: #383838; stroke-width: 1.5;" width="44" x="125.5" y="122"/><text fill="#000000" font-family="sans-serif" font-size="12" lengthAdjust="spacingAndGlyphs" textLength="38" x="128.5" y="138.1387">Kunde</text><!--class Pferd--><rect fill="#FFFFFF" filter="url(#f5lucbj)" height="23.9688" style="stroke: #383838; stroke-width: 1.5;" width="39" x="6" y="122"/><text fill="#000000" font-family="sans-serif" font-size="12" lengthAdjust="spacingAndGlyphs" textLength="33" x="9" y="138.1387">Pferd</text><!--class Reservierung--><rect fill="#FFFFFF" filter="url(#f5lucbj)" height="23.9688" style="stroke: #383838; stroke-width: 1.5;" width="88" x="249.5" y="122"/><text fill="#000000" font-family="sans-serif" font-size="12" lengthAdjust="spacingAndGlyphs" textLength="82" x="252.5" y="138.1387">Reservierung</text><path d="M417.975,139.81 C373.5094,157.5962 238.5843,211.5663 177.7807,235.8877 " fill="none" style="stroke: #383838; stroke-width: 1.0;"/><text fill="#000000" font-family="sans-serif" font-size="13" lengthAdjust="spacingAndGlyphs" textLength="7" x="403.0891" y="157.7359">*</text><text fill="#000000" font-family="sans-serif" font-size="13" lengthAdjust="spacingAndGlyphs" textLength="8" x="180.6215" y="224.8984">1</text><path d="M432.5,32.2 C432.5,50.3705 432.5,84.9495 432.5,108.7242 " fill="none" style="stroke: #383838; stroke-width: 1.0;"/><polygon fill="#383838" points="432.5,121.8877,436.5,115.8877,432.5,109.8877,428.5,115.8877,432.5,121.8877" style="stroke: #383838; stroke-width: 1.0;"/><text fill="#000000" font-family="sans-serif" font-size="13" lengthAdjust="spacingAndGlyphs" textLength="8" x="418.1375" y="52.0561">1</text><text fill="#000000" font-family="sans-serif" font-size="13" lengthAdjust="spacingAndGlyphs" textLength="8" x="418.025" y="110.8984">1</text><path d="M147.5,235.8877 C147.5,214.0099 147.5,168.1418 147.5,146.2 " fill="none" style="stroke: #383838; stroke-width: 1.0;"/><text fill="#000000" font-family="sans-serif" font-size="13" lengthAdjust="spacingAndGlyphs" textLength="7" x="139.0563" y="224.8984">*</text><text fill="#000000" font-family="sans-serif" font-size="13" lengthAdjust="spacingAndGlyphs" textLength="8" x="137.925" y="166.0561">1</text><path d="M134.5377,235.8877 C111.1246,214.0099 62.0377,168.1418 38.5561,146.2 " fill="none" style="stroke: #383838; stroke-width: 1.0;"/><text fill="#000000" font-family="sans-serif" font-size="13" lengthAdjust="spacingAndGlyphs" textLength="8" x="119.5408" y="224.8984">1</text><text fill="#000000" font-family="sans-serif" font-size="13" lengthAdjust="spacingAndGlyphs" textLength="8" x="34.1219" y="166.0561">1</text><path d="M169.7422,134 C196.1696,134 222.5971,134 249.0245,134 " fill="none" style="stroke: #383838; stroke-width: 1.0;"/><text fill="#000000" font-family="sans-serif" font-size="13" lengthAdjust="spacingAndGlyphs" textLength="7" x="177.6257" y="128.7951">*</text><text fill="#000000" font-family="sans-serif" font-size="13" lengthAdjust="spacingAndGlyphs" textLength="8" x="233.6017" y="129.931">1</text><path d="M337.752,134 C364.3998,134 391.0477,134 417.6956,134 " fill="none" style="stroke: #383838; stroke-width: 1.0;"/><text fill="#000000" font-family="sans-serif" font-size="13" lengthAdjust="spacingAndGlyphs" textLength="8" x="345.4422" y="129.8847">1</text><text fill="#000000" font-family="sans-serif" font-size="13" lengthAdjust="spacingAndGlyphs" textLength="7" x="403.145" y="128.007">*</text><path d="M40.656,121.97 C59.3388,107.9823 92.6616,85.7018 125.5,77 C182.3648,61.9315 247.8949,101.0774 277.5058,121.9276 " fill="none" style="stroke: #383838; stroke-width: 1.0;"/><text fill="#000000" font-family="sans-serif" font-size="13" lengthAdjust="spacingAndGlyphs" textLength="8" x="37.2579" y="111.0146">1</text><text fill="#000000" font-family="sans-serif" font-size="13" lengthAdjust="spacingAndGlyphs" textLength="8" x="261.2582" y="110.9547">1</text></g></svg>