<?xml version="1.0" encoding="UTF-8" standalone="no"?><svg xmlns="http://www.w3.org/2000/svg" xmlns:xlink="http://www.w3.org/1999/xlink" contentScriptType="application/ecmascript" contentStyleType="text/css" height="508px" preserveAspectRatio="none" style="width:638px;height:508px;" version="1.1" viewBox="0 0 638 508" width="638px" zoomAndPan="magnify"><defs><filter height="300%" id="fz9mflv" width="300%" x="-1" y="-1"><feGaussianBlur result="blurOut" stdDeviation="2.0"/><feColorMatrix in="blurOut" result="blurOut2" type="matrix" values="0 0 0 0 0 0 0 0 0 0 0 0 0 0 0 0 0 0 .4 0"/><feOffset dx="4.0" dy="4.0" in="blurOut2" result="blurOut3"/><feBlend in="SourceGraphic" in2="blurOut3" mode="normal"/></filter></defs><g><!--cluster Wendy's Pferdepension--><rect fill="#FFFFFF" filter="url(#fz9mflv)" height="391" style="stroke: #000000; stroke-width: 2.0;" width="537" x="94" y="24"/><text fill="#000000" font-family="sans-serif" font-size="14" font-weight="bold" lengthAdjust="spacingAndGlyphs" textLength="192" x="266.5" y="38.9951">Wendy's Pferdepension</text><ellipse cx="181.0143" cy="74.2029" fill="#F8F8F8" filter="url(#fz9mflv)" rx="61.5143" ry="14.7029" style="stroke: #383838; stroke-width: 1.5;"/><text fill="#000000" font-family="sans-serif" font-size="14" lengthAdjust="spacingAndGlyphs" textLength="84" x="139.0143" y="78.8513">Box anlegen</text><ellipse cx="531.8614" cy="292.0236" fill="#F8F8F8" filter="url(#fz9mflv)" rx="58.8614" ry="14.5236" style="stroke: #383838; stroke-width: 1.5;"/><text fill="#000000" font-family="sans-serif" font-size="14" lengthAdjust="spacingAndGlyphs" textLength="79" x="492.3614" y="296.6721">Box suchen</text><ellipse cx="180.85" cy="134.87" fill="#F8F8F8" filter="url(#fz9mflv)" rx="69.85" ry="16.37" style="stroke: #383838; stroke-width: 1.5;"/><text fill="#000000" font-family="sans-serif" font-size="14" lengthAdjust="spacingAndGlyphs" textLength="106" x="127.85" y="139.5184">Box bearbeiten</text><ellipse cx="181.0454" cy="198.1091" fill="#F8F8F8" filter="url(#fz9mflv)" rx="71.0454" ry="16.6091" style="stroke: #383838; stroke-width: 1.5;"/><text fill="#000000" font-family="sans-serif" font-size="14" lengthAdjust="spacingAndGlyphs" textLength="109" x="126.5454" y="202.7575">Rechnung legen</text><ellipse cx="181.1456" cy="261.0291" fill="#F8F8F8" filter="url(#fz9mflv)" rx="70.6456" ry="16.5291" style="stroke: #383838; stroke-width: 1.5;"/><text fill="#000000" font-family="sans-serif" font-size="14" lengthAdjust="spacingAndGlyphs" textLength="108" x="127.1456" y="265.6776">Box reservieren</text><ellipse cx="181.1565" cy="322.1313" fill="#F8F8F8" filter="url(#fz9mflv)" rx="61.1565" ry="14.6313" style="stroke: #383838; stroke-width: 1.5;"/><text fill="#000000" font-family="sans-serif" font-size="14" lengthAdjust="spacingAndGlyphs" textLength="83" x="139.6565" y="326.7797">Box löschen</text><ellipse cx="181.1672" cy="383.1334" fill="#F8F8F8" filter="url(#fz9mflv)" rx="68.6672" ry="16.1334" style="stroke: #383838; stroke-width: 1.5;"/><text fill="#000000" font-family="sans-serif" font-size="14" lengthAdjust="spacingAndGlyphs" textLength="103" x="129.6672" y="387.7819">Preis anpassen</text><ellipse cx="532.1307" cy="374.0261" fill="#F8F8F8" filter="url(#fz9mflv)" rx="83.1307" ry="19.0261" style="stroke: #383838; stroke-width: 1.5;"/><text fill="#000000" font-family="sans-serif" font-size="14" lengthAdjust="spacingAndGlyphs" textLength="138" x="463.1307" y="378.6746">Statistik generieren</text><!--entity user--><ellipse cx="37.5" cy="266.5" fill="#F8F8F8" filter="url(#fz9mflv)" rx="8" ry="8" style="stroke: #383838; stroke-width: 2.0;"/><path d="M37.5,274.5 L37.5,301.5 M24.5,282.5 L50.5,282.5 M37.5,301.5 L24.5,316.5 M37.5,301.5 L50.5,316.5 " fill="#F8F8F8" filter="url(#fz9mflv)" style="stroke: #383838; stroke-width: 2.0;"/><text fill="#000000" font-family="sans-serif" font-size="14" lengthAdjust="spacingAndGlyphs" textLength="63" x="6" y="336.4951">Benutzer</text><path d="M43.0035,256.2627 C50.4687,205.7775 65.2898,124.8272 86,103 C95.4083,93.0843 108.0982,86.5287 121.1355,82.2031 " fill="none" style="stroke: #383838; stroke-width: 1.0;"/><polygon fill="#383838" points="125.949,80.7083,116.1676,79.5574,121.174,82.1912,118.5402,87.1975,125.949,80.7083" style="stroke: #383838; stroke-width: 1.0;"/><path d="M45.7071,339.531 C52.5888,364.2329 64.8217,394.4632 86,414 C118.6446,444.1143 136.5867,445 181,445 C181,445 181,445 431.5,445 C455.1552,445 435.53,359.4455 449,340 C459.5657,324.7471 476.6667,313.6766 492.6084,306.0382 " fill="none" style="stroke: #383838; stroke-width: 1.0;"/><polygon fill="#383838" points="497.5101,303.777,487.6622,303.915,492.9699,305.8715,491.0134,311.1792,497.5101,303.777" style="stroke: #383838; stroke-width: 1.0;"/><path d="M43.0641,256.4837 C49.0199,227.5083 61.2157,189.8912 86,166 C95.1522,157.1775 106.8481,150.8658 118.8817,146.3504 " fill="none" style="stroke: #383838; stroke-width: 1.0;"/><polygon fill="#383838" points="123.6866,144.6455,113.8671,143.8854,118.9744,146.3175,116.5423,151.4248,123.6866,144.6455" style="stroke: #383838; stroke-width: 1.0;"/><path d="M60.3691,256.3158 C67.4897,246.2563 76.1109,236.3134 86,229 C96.7134,221.077 109.5494,215.1177 122.27,210.6571 " fill="none" style="stroke: #383838; stroke-width: 1.0;"/><polygon fill="#383838" points="127.3245,208.9588,117.5192,208.0338,122.5849,210.5514,120.0673,215.6171,127.3245,208.9588" style="stroke: #383838; stroke-width: 1.0;"/><path d="M69.3868,289.0417 C71.9604,288.3426 74.5223,287.6546 77,287 C93.2254,282.7134 110.9237,278.2208 127.0442,274.1991 " fill="none" style="stroke: #383838; stroke-width: 1.0;"/><polygon fill="#383838" points="131.9931,272.9669,122.2932,271.2603,127.1413,274.1752,124.2265,279.0232,131.9931,272.9669" style="stroke: #383838; stroke-width: 1.0;"/><path d="M69.3473,303.3264 C85.8763,306.0908 106.5479,309.5481 125.5961,312.7338 " fill="none" style="stroke: #383838; stroke-width: 1.0;"/><polygon fill="#383838" points="130.9209,313.6244,122.7041,308.1945,125.9894,312.7996,121.3843,316.0849,130.9209,313.6244" style="stroke: #383838; stroke-width: 1.0;"/><path d="M69.0583,337.2538 C74.334,342.3402 80.0428,347.1199 86,351 C98.3387,359.0365 112.8986,365.2562 126.8636,369.9823 " fill="none" style="stroke: #383838; stroke-width: 1.0;"/><polygon fill="#383838" points="131.9765,371.6565,124.6682,365.0543,127.2248,370.1005,122.1786,372.6571,131.9765,371.6565" style="stroke: #383838; stroke-width: 1.0;"/><path d="M42.2613,339.8146 C47.9014,373.2136 60.058,419.6264 86,452 C116.5083,490.0721 132.2122,507 181,507 C181,507 181,507 431.5,507 C485.5103,507 514.183,436.3205 525.7573,398.0107 " fill="none" style="stroke: #383838; stroke-width: 1.0;"/><polygon fill="#383838" points="527.2136,393.0557,520.8379,400.5624,525.8036,397.8528,528.5132,402.8184,527.2136,393.0557" style="stroke: #383838; stroke-width: 1.0;"/><path d="M217.288,246.7437 C228.7067,241.7095 241.159,235.6331 252,229 C260.4962,223.8015 259.5396,215 269.5,215 C269.5,215 269.5,215 431.5,215 C469.781,215 502.4899,250.6376 519.4908,273.4233 " fill="none" style="stroke: #383838; stroke-width: 1.0; stroke-dasharray: 7.0,7.0;"/><polygon fill="#383838" points="522.4802,277.5169,520.4025,267.8897,519.5313,273.479,513.942,272.6078,522.4802,277.5169" style="stroke: #383838; stroke-width: 1.0;"/><text fill="#000000" font-family="sans-serif" font-size="13" lengthAdjust="spacingAndGlyphs" textLength="53" x="324" y="211.0669">includes</text><path d="M206.1829,308.5794 C223.4911,300.5918 247.274,292 269.5,292 C269.5,292 269.5,292 431.5,292 C443.1792,292 455.6219,292 467.6302,292 " fill="none" style="stroke: #383838; stroke-width: 1.0; stroke-dasharray: 7.0,7.0;"/><polygon fill="#383838" points="472.7466,292,463.7466,288,467.7466,292,463.7466,296,472.7466,292" style="stroke: #383838; stroke-width: 1.0;"/><text fill="#000000" font-family="sans-serif" font-size="13" lengthAdjust="spacingAndGlyphs" textLength="53" x="324" y="288.0669">includes</text><path d="M231.794,372.1768 C244.0788,370.3332 257.211,369 269.5,369 C269.5,369 269.5,369 431.5,369 C436.3478,369 441.3255,369.0588 446.348,369.1635 " fill="none" style="stroke: #383838; stroke-width: 1.0; stroke-dasharray: 7.0,7.0;"/><polygon fill="#383838" points="451.3822,369.2831,442.4798,365.0703,446.3836,369.1642,442.2897,373.068,451.3822,369.2831" style="stroke: #383838; stroke-width: 1.0;"/><text fill="#000000" font-family="sans-serif" font-size="13" lengthAdjust="spacingAndGlyphs" textLength="53" x="324" y="365.0669">includes</text></g></svg>